<svg xmlns="http://www.w3.org/2000/svg" xmlns:xlink="http://www.w3.org/1999/xlink" version="1.1" x="0px" y="0px" viewBox="0 0 64 64" style="enable-background:new 0 0 64 64;" xml:space="preserve"><path fill='#FF4444' d="M53.4,29.3c-0.1-1.8-0.6-3.6-1.5-5.1L51.8,24c-0.1-0.1-0.1-0.3-0.2-0.3c-0.4-0.8-0.9-1.6-1.4-2.3l-0.4-0.7  c-0.9-1.4-1.1-2.7-0.8-4.1c0.1-0.3,0.2-0.6,0.3-1l1.1-2.5l-2,0l-0.2,0c-0.2,0-0.4,0.1-0.6,0.1c-2.7,0.5-4.5,2-5.3,4.5  c-0.3,0.9-0.4,1.9-0.4,3.1c0,0.4,0,0.9,0.1,1.4c0.1,0.9-0.1,1.5-0.6,2.1c-0.1,0.2-0.3,0.3-0.4,0.4c-0.1,0.1-0.3,0.2-0.4,0.3  c-0.4,0.2-0.9,0.3-1.3,0.3c-0.3-0.1-0.6-0.2-0.9-0.3c-0.7-0.6-0.8-1.6-0.9-3.1c0-0.5,0-0.9-0.1-1.3c-0.2-1.5-0.7-3-1.4-4.3  c-0.5-0.9-1.1-1.5-1.7-2.2c-0.4-0.4-0.7-0.8-1-1.2c-0.4-0.5-0.7-1.1-0.9-1.6C32,9.9,31.8,8.7,32,7.2C32,6.6,32.2,6,32.4,5.3  c0.3-0.9,0.5-1.8,0.5-2.7l0-1.8l-1.7,0.6c-0.9,0.3-1.7,0.9-2.4,1.5L28.8,3c-2.4,1.8-4,3.7-5,5.8c-1.7,3.7-1.5,7.3,0.6,10.6  c0.2,0.2,0.3,0.5,0.5,0.7c0,0.1,0.1,0.1,0.1,0.2l0.1,0.1c0.2,0.2,0.3,0.4,0.5,0.6c0.2,0.2,0.4,0.4,0.5,0.6c0.2,0.3,0.4,0.6,0.4,0.9  c0,0.2,0,0.3,0,0.4c-0.1,1.3-1.6,1.7-2.5,1.7c-0.7,0-1.4-0.2-1.8-0.6c-0.2-0.1-0.3-0.3-0.4-0.4c-0.5-0.6-0.7-1.2-0.6-2.1l0-0.1  c0.2-1.8,0-3.1-0.3-4.4c-0.8-2.5-2.6-4-5.3-4.5c-0.2,0-0.4-0.1-0.5-0.1c-0.1,0-0.2,0-0.3,0l-2.1,0l1.2,2.5c0.3,0.8,0.5,1.5,0.5,2.2  c0,0.9-0.3,1.9-0.9,2.9c-0.2,0.3-0.4,0.6-0.6,0.9c-0.7,1.1-1.6,2.4-2,3.8c-0.7,2.1-0.3,4,0.1,5.9L11,31c0.2,1.2,0.7,2.4,1.2,3.4  c0.5,1.1,0.9,2.1,1.1,3.1c0.1,0.7-0.1,1.5-0.3,2.3c-0.2,0.9-0.5,1.7-0.4,2.6c-0.1,1.2,0,2.2,0,3.1c0.9,9.2,8.2,16.5,17.3,17.6  c0.7,0.1,1.4,0.1,2.2,0.1c0,0,0,0,0,0c5.8,0,11.3-2.5,15.1-7c2.1-2.5,3.5-5.4,4.2-8.5c0.2-0.8,0.3-1.7,0.4-2.8c0,0,0-0.1,0-0.1h0  c0,0,0,0.1,0,0.1l0-0.1c0.1-0.8,0.1-1.7,0-2.7l0-0.2c0-1.3,0-2.4,0.2-3.6c0.1-1,0.4-2.1,0.7-3.1C53.1,33.3,53.6,31.4,53.4,29.3z   M17.4,44.3c-0.8,0-1.4-0.6-1.4-1.4c0-0.8,0.6-1.4,1.4-1.4h2.4c0.8,0,1.4,0.6,1.4,1.4c0,0.8-0.6,1.4-1.4,1.4H17.4z M24.3,52.5  l-1.7,1.7c-0.3,0.3-0.6,0.4-1,0.4c-0.4,0-0.7-0.1-1-0.4c-0.5-0.5-0.5-1.4,0-2l1.7-1.7c0.5-0.5,1.4-0.5,2,0  C24.8,51.1,24.8,52,24.3,52.5z M24.5,35.4c-0.3,0.3-0.6,0.4-1,0.4c-0.4,0-0.7-0.1-1-0.4l-1.7-1.7c-0.5-0.5-0.5-1.4,0-2  c0.5-0.5,1.4-0.5,2,0l1.7,1.7C25,33.9,25,34.8,24.5,35.4z M30.8,28.5c0-0.8,0.6-1.4,1.4-1.4c0.8,0,1.4,0.6,1.4,1.4v2.4  c0,0.8-0.6,1.4-1.4,1.4c-0.8,0-1.4-0.6-1.4-1.4V28.5z M33.2,57.7c0,0.8-0.6,1.4-1.4,1.4c-0.8,0-1.4-0.6-1.4-1.4v-2.4  c0-0.8,0.6-1.4,1.4-1.4c0.8,0,1.4,0.6,1.4,1.4V57.7z M34.5,45.8c-1.5,1.4-3.9,1.3-5.3-0.3c-1.4-1.5-1.3-3.9,0.3-5.3  c0,0,0.1,0,0.1-0.1l-2.1-4.7c-0.3-0.7,0-1.5,0.7-1.8c0.7-0.3,1.5,0,1.8,0.7l2.2,4.9c0.9,0.1,1.9,0.5,2.5,1.2  C36.1,42,36,44.4,34.5,45.8z M39.7,33.6l1.7-1.7c0.5-0.5,1.4-0.5,2,0c0.5,0.5,0.5,1.4,0,2l-1.7,1.7c-0.3,0.3-0.6,0.4-1,0.4  c-0.4,0-0.7-0.1-1-0.4C39.2,35,39.2,34.2,39.7,33.6z M43.2,54.5c-0.3,0.3-0.6,0.4-1,0.4c-0.4,0-0.7-0.1-1-0.4l-1.7-1.7  c-0.5-0.5-0.5-1.4,0-2c0.5-0.5,1.4-0.5,2,0l1.7,1.7C43.7,53.1,43.7,53.9,43.2,54.5z M46.6,44.6h-2.4c-0.8,0-1.4-0.6-1.4-1.4  c0-0.8,0.6-1.4,1.4-1.4h2.4c0.8,0,1.4,0.6,1.4,1.4C48,44,47.4,44.6,46.6,44.6z"></path></svg>